<mxfile host="app.diagrams.net" modified="2023-07-30T10:13:25.969Z" agent="Mozilla/5.0 (Windows NT 10.0; Win64; x64) AppleWebKit/537.36 (KHTML, like Gecko) Chrome/115.0.0.0 Safari/537.36" etag="T4mOnaMRiap7ZlsDQjic" version="21.6.2" type="device">
  <diagram id="C5RBs43oDa-KdzZeNtuy" name="Page-1">
    <mxGraphModel dx="1018" dy="1810" grid="1" gridSize="10" guides="1" tooltips="1" connect="1" arrows="1" fold="1" page="1" pageScale="1" pageWidth="827" pageHeight="1169" math="0" shadow="0">
      <root>
        <mxCell id="WIyWlLk6GJQsqaUBKTNV-0" />
        <mxCell id="WIyWlLk6GJQsqaUBKTNV-1" parent="WIyWlLk6GJQsqaUBKTNV-0" />
        <mxCell id="sz-k3UKfdQ9AmwkZd8R5-64" value="" style="rounded=0;whiteSpace=wrap;html=1;" vertex="1" parent="WIyWlLk6GJQsqaUBKTNV-1">
          <mxGeometry x="440" y="-600" width="160" height="110" as="geometry" />
        </mxCell>
        <mxCell id="sz-k3UKfdQ9AmwkZd8R5-7" value="" style="rounded=0;whiteSpace=wrap;html=1;" vertex="1" parent="WIyWlLk6GJQsqaUBKTNV-1">
          <mxGeometry x="440" y="-280" width="160" height="70" as="geometry" />
        </mxCell>
        <mxCell id="sz-k3UKfdQ9AmwkZd8R5-23" value="" style="rounded=1;whiteSpace=wrap;html=1;" vertex="1" parent="WIyWlLk6GJQsqaUBKTNV-1">
          <mxGeometry x="475" y="-300" width="90" height="40" as="geometry" />
        </mxCell>
        <mxCell id="sz-k3UKfdQ9AmwkZd8R5-16" value="" style="rounded=1;whiteSpace=wrap;html=1;" vertex="1" parent="WIyWlLk6GJQsqaUBKTNV-1">
          <mxGeometry x="475" y="-625" width="90" height="40" as="geometry" />
        </mxCell>
        <mxCell id="sz-k3UKfdQ9AmwkZd8R5-18" value="&lt;b&gt;&lt;font style=&quot;font-size: 19px;&quot;&gt;하나보험&lt;/font&gt;&lt;/b&gt;" style="text;html=1;strokeColor=none;fillColor=none;align=center;verticalAlign=middle;whiteSpace=wrap;rounded=0;" vertex="1" parent="WIyWlLk6GJQsqaUBKTNV-1">
          <mxGeometry x="480" y="-620" width="80" height="30" as="geometry" />
        </mxCell>
        <mxCell id="sz-k3UKfdQ9AmwkZd8R5-0" value="" style="whiteSpace=wrap;html=1;aspect=fixed;" vertex="1" parent="WIyWlLk6GJQsqaUBKTNV-1">
          <mxGeometry x="40" y="-600" width="160" height="160" as="geometry" />
        </mxCell>
        <mxCell id="sz-k3UKfdQ9AmwkZd8R5-13" value="" style="rounded=1;whiteSpace=wrap;html=1;" vertex="1" parent="WIyWlLk6GJQsqaUBKTNV-1">
          <mxGeometry x="75" y="-624" width="90" height="40" as="geometry" />
        </mxCell>
        <mxCell id="sz-k3UKfdQ9AmwkZd8R5-17" value="&lt;b&gt;&lt;font style=&quot;font-size: 19px;&quot;&gt;1Q보험&lt;/font&gt;&lt;/b&gt;" style="text;html=1;strokeColor=none;fillColor=none;align=center;verticalAlign=middle;whiteSpace=wrap;rounded=0;" vertex="1" parent="WIyWlLk6GJQsqaUBKTNV-1">
          <mxGeometry x="80" y="-619" width="80" height="30" as="geometry" />
        </mxCell>
        <mxCell id="sz-k3UKfdQ9AmwkZd8R5-21" value="&lt;b style=&quot;&quot;&gt;&lt;font style=&quot;font-size: 13px;&quot;&gt;건강보험공단&lt;/font&gt;&lt;/b&gt;" style="text;html=1;strokeColor=none;fillColor=none;align=center;verticalAlign=middle;whiteSpace=wrap;rounded=0;" vertex="1" parent="WIyWlLk6GJQsqaUBKTNV-1">
          <mxGeometry x="480" y="-295" width="80" height="30" as="geometry" />
        </mxCell>
        <mxCell id="sz-k3UKfdQ9AmwkZd8R5-24" value="01. 질병예측&lt;br&gt;건강검진데이터 &amp;amp; 입력 데이터를 기반으로 위험도 예측&lt;br&gt;02. 바이오지갑&lt;br&gt;병원에 각종 서류를 요청, 보관하는 지갑&lt;br&gt;03. 보험 추천&lt;br&gt;위험도 및 개인정보를 기반 &amp;amp; 보험설계사로부터보험 상품을 추천받음" style="text;html=1;strokeColor=none;fillColor=none;align=left;verticalAlign=middle;whiteSpace=wrap;rounded=0;" vertex="1" parent="WIyWlLk6GJQsqaUBKTNV-1">
          <mxGeometry x="30" y="-180" width="396.25" height="134" as="geometry" />
        </mxCell>
        <mxCell id="sz-k3UKfdQ9AmwkZd8R5-26" value="" style="rounded=0;whiteSpace=wrap;html=1;" vertex="1" parent="WIyWlLk6GJQsqaUBKTNV-1">
          <mxGeometry x="260" y="-280" width="160" height="110" as="geometry" />
        </mxCell>
        <mxCell id="sz-k3UKfdQ9AmwkZd8R5-27" value="" style="rounded=1;whiteSpace=wrap;html=1;" vertex="1" parent="WIyWlLk6GJQsqaUBKTNV-1">
          <mxGeometry x="295" y="-300" width="90" height="40" as="geometry" />
        </mxCell>
        <mxCell id="sz-k3UKfdQ9AmwkZd8R5-28" value="&lt;b style=&quot;&quot;&gt;&lt;font style=&quot;font-size: 13px;&quot;&gt;병원&lt;/font&gt;&lt;/b&gt;" style="text;html=1;strokeColor=none;fillColor=none;align=center;verticalAlign=middle;whiteSpace=wrap;rounded=0;" vertex="1" parent="WIyWlLk6GJQsqaUBKTNV-1">
          <mxGeometry x="300" y="-295" width="80" height="30" as="geometry" />
        </mxCell>
        <mxCell id="sz-k3UKfdQ9AmwkZd8R5-30" value="" style="endArrow=classic;html=1;rounded=0;exitX=0.556;exitY=1.008;exitDx=0;exitDy=0;entryX=-0.001;entryY=0.449;entryDx=0;entryDy=0;exitPerimeter=0;entryPerimeter=0;" edge="1" parent="WIyWlLk6GJQsqaUBKTNV-1" source="sz-k3UKfdQ9AmwkZd8R5-0" target="sz-k3UKfdQ9AmwkZd8R5-26">
          <mxGeometry width="50" height="50" relative="1" as="geometry">
            <mxPoint x="330" y="-400" as="sourcePoint" />
            <mxPoint x="440" y="-410" as="targetPoint" />
          </mxGeometry>
        </mxCell>
        <mxCell id="sz-k3UKfdQ9AmwkZd8R5-43" value="01. 건강검진 데이터 요청&lt;br&gt;02. 사용자 병원 서류 요청" style="edgeLabel;html=1;align=center;verticalAlign=middle;resizable=0;points=[];" vertex="1" connectable="0" parent="sz-k3UKfdQ9AmwkZd8R5-30">
          <mxGeometry x="-0.0152" y="-1" relative="1" as="geometry">
            <mxPoint x="47" y="-24" as="offset" />
          </mxGeometry>
        </mxCell>
        <mxCell id="sz-k3UKfdQ9AmwkZd8R5-31" value="" style="endArrow=classic;html=1;rounded=0;exitX=1.01;exitY=0.85;exitDx=0;exitDy=0;entryX=0.5;entryY=0;entryDx=0;entryDy=0;exitPerimeter=0;" edge="1" parent="WIyWlLk6GJQsqaUBKTNV-1" source="sz-k3UKfdQ9AmwkZd8R5-0" target="sz-k3UKfdQ9AmwkZd8R5-23">
          <mxGeometry width="50" height="50" relative="1" as="geometry">
            <mxPoint x="390" y="-360" as="sourcePoint" />
            <mxPoint x="440" y="-410" as="targetPoint" />
          </mxGeometry>
        </mxCell>
        <mxCell id="sz-k3UKfdQ9AmwkZd8R5-45" value="01. 건강검진 데이터 요청" style="edgeLabel;html=1;align=center;verticalAlign=middle;resizable=0;points=[];" vertex="1" connectable="0" parent="sz-k3UKfdQ9AmwkZd8R5-31">
          <mxGeometry x="0.3222" y="3" relative="1" as="geometry">
            <mxPoint x="35" y="-12" as="offset" />
          </mxGeometry>
        </mxCell>
        <mxCell id="sz-k3UKfdQ9AmwkZd8R5-32" value="" style="endArrow=classic;html=1;rounded=0;exitX=0;exitY=0.75;exitDx=0;exitDy=0;entryX=0.427;entryY=1.013;entryDx=0;entryDy=0;entryPerimeter=0;" edge="1" parent="WIyWlLk6GJQsqaUBKTNV-1" source="sz-k3UKfdQ9AmwkZd8R5-26" target="sz-k3UKfdQ9AmwkZd8R5-0">
          <mxGeometry width="50" height="50" relative="1" as="geometry">
            <mxPoint x="260" y="-270" as="sourcePoint" />
            <mxPoint x="110" y="-430" as="targetPoint" />
          </mxGeometry>
        </mxCell>
        <mxCell id="sz-k3UKfdQ9AmwkZd8R5-44" value="01. 건강검진 데이터 응답&lt;br&gt;02. 사용자 병원 서류 응답" style="edgeLabel;html=1;align=center;verticalAlign=middle;resizable=0;points=[];" vertex="1" connectable="0" parent="sz-k3UKfdQ9AmwkZd8R5-32">
          <mxGeometry x="-0.0558" y="1" relative="1" as="geometry">
            <mxPoint x="-58" as="offset" />
          </mxGeometry>
        </mxCell>
        <mxCell id="sz-k3UKfdQ9AmwkZd8R5-33" value="" style="endArrow=classic;html=1;rounded=0;exitX=0.178;exitY=0.017;exitDx=0;exitDy=0;exitPerimeter=0;entryX=1.01;entryY=0.95;entryDx=0;entryDy=0;entryPerimeter=0;" edge="1" parent="WIyWlLk6GJQsqaUBKTNV-1" source="sz-k3UKfdQ9AmwkZd8R5-23" target="sz-k3UKfdQ9AmwkZd8R5-0">
          <mxGeometry width="50" height="50" relative="1" as="geometry">
            <mxPoint x="450" y="-280" as="sourcePoint" />
            <mxPoint x="200" y="-450" as="targetPoint" />
          </mxGeometry>
        </mxCell>
        <mxCell id="sz-k3UKfdQ9AmwkZd8R5-46" value="01. 건강검진 데이터 응답" style="edgeLabel;html=1;align=center;verticalAlign=middle;resizable=0;points=[];" vertex="1" connectable="0" parent="sz-k3UKfdQ9AmwkZd8R5-33">
          <mxGeometry x="-0.5709" y="-1" relative="1" as="geometry">
            <mxPoint x="-49" as="offset" />
          </mxGeometry>
        </mxCell>
        <mxCell id="sz-k3UKfdQ9AmwkZd8R5-34" value="" style="endArrow=classic;html=1;rounded=0;exitX=1;exitY=0.25;exitDx=0;exitDy=0;entryX=0;entryY=0.25;entryDx=0;entryDy=0;" edge="1" parent="WIyWlLk6GJQsqaUBKTNV-1" source="sz-k3UKfdQ9AmwkZd8R5-0">
          <mxGeometry width="50" height="50" relative="1" as="geometry">
            <mxPoint x="390" y="-360" as="sourcePoint" />
            <mxPoint x="440" y="-560" as="targetPoint" />
          </mxGeometry>
        </mxCell>
        <mxCell id="sz-k3UKfdQ9AmwkZd8R5-47" value="01. 질병예측 위험군 및 건강정보 데이터 전송" style="edgeLabel;html=1;align=center;verticalAlign=middle;resizable=0;points=[];" vertex="1" connectable="0" parent="sz-k3UKfdQ9AmwkZd8R5-34">
          <mxGeometry x="0.1611" y="2" relative="1" as="geometry">
            <mxPoint x="-19" y="-8" as="offset" />
          </mxGeometry>
        </mxCell>
        <mxCell id="sz-k3UKfdQ9AmwkZd8R5-35" value="" style="endArrow=classic;html=1;rounded=0;entryX=0.994;entryY=0.346;entryDx=0;entryDy=0;entryPerimeter=0;exitX=-0.006;exitY=0.329;exitDx=0;exitDy=0;exitPerimeter=0;" edge="1" parent="WIyWlLk6GJQsqaUBKTNV-1" target="sz-k3UKfdQ9AmwkZd8R5-0">
          <mxGeometry width="50" height="50" relative="1" as="geometry">
            <mxPoint x="439.03999999999996" y="-547.3599999999999" as="sourcePoint" />
            <mxPoint x="200" y="-550" as="targetPoint" />
          </mxGeometry>
        </mxCell>
        <mxCell id="sz-k3UKfdQ9AmwkZd8R5-48" value="가입 결과 응답" style="edgeLabel;html=1;align=center;verticalAlign=middle;resizable=0;points=[];" vertex="1" connectable="0" parent="sz-k3UKfdQ9AmwkZd8R5-35">
          <mxGeometry x="-0.0938" y="3" relative="1" as="geometry">
            <mxPoint x="-20" as="offset" />
          </mxGeometry>
        </mxCell>
        <mxCell id="sz-k3UKfdQ9AmwkZd8R5-37" value="" style="endArrow=classic;html=1;rounded=0;exitX=1;exitY=0.5;exitDx=0;exitDy=0;entryX=0;entryY=0.5;entryDx=0;entryDy=0;" edge="1" parent="WIyWlLk6GJQsqaUBKTNV-1" source="sz-k3UKfdQ9AmwkZd8R5-0">
          <mxGeometry width="50" height="50" relative="1" as="geometry">
            <mxPoint x="390" y="-360" as="sourcePoint" />
            <mxPoint x="440" y="-520" as="targetPoint" />
          </mxGeometry>
        </mxCell>
        <mxCell id="sz-k3UKfdQ9AmwkZd8R5-50" value="보험금 청구 서류 전달" style="edgeLabel;html=1;align=center;verticalAlign=middle;resizable=0;points=[];" vertex="1" connectable="0" parent="sz-k3UKfdQ9AmwkZd8R5-37">
          <mxGeometry x="0.1028" y="-4" relative="1" as="geometry">
            <mxPoint x="-12" y="-4" as="offset" />
          </mxGeometry>
        </mxCell>
        <mxCell id="sz-k3UKfdQ9AmwkZd8R5-38" value="" style="endArrow=classic;html=1;rounded=0;entryX=1.002;entryY=0.579;entryDx=0;entryDy=0;entryPerimeter=0;" edge="1" parent="WIyWlLk6GJQsqaUBKTNV-1" target="sz-k3UKfdQ9AmwkZd8R5-0">
          <mxGeometry width="50" height="50" relative="1" as="geometry">
            <mxPoint x="440" y="-507" as="sourcePoint" />
            <mxPoint x="440" y="-410" as="targetPoint" />
          </mxGeometry>
        </mxCell>
        <mxCell id="sz-k3UKfdQ9AmwkZd8R5-51" value="보험금&amp;nbsp; 청구 완료 응답" style="edgeLabel;html=1;align=center;verticalAlign=middle;resizable=0;points=[];" vertex="1" connectable="0" parent="sz-k3UKfdQ9AmwkZd8R5-38">
          <mxGeometry x="0.0236" y="-1" relative="1" as="geometry">
            <mxPoint x="3" y="8" as="offset" />
          </mxGeometry>
        </mxCell>
        <mxCell id="sz-k3UKfdQ9AmwkZd8R5-39" value="" style="rounded=1;whiteSpace=wrap;html=1;" vertex="1" parent="WIyWlLk6GJQsqaUBKTNV-1">
          <mxGeometry x="448" y="-570" width="145" height="30" as="geometry" />
        </mxCell>
        <mxCell id="sz-k3UKfdQ9AmwkZd8R5-40" value="" style="rounded=1;whiteSpace=wrap;html=1;" vertex="1" parent="WIyWlLk6GJQsqaUBKTNV-1">
          <mxGeometry x="448" y="-532" width="145" height="30" as="geometry" />
        </mxCell>
        <mxCell id="sz-k3UKfdQ9AmwkZd8R5-41" value="보험가입API" style="text;html=1;strokeColor=none;fillColor=none;align=center;verticalAlign=middle;whiteSpace=wrap;rounded=0;" vertex="1" parent="WIyWlLk6GJQsqaUBKTNV-1">
          <mxGeometry x="480" y="-570" width="72.5" height="30" as="geometry" />
        </mxCell>
        <mxCell id="sz-k3UKfdQ9AmwkZd8R5-42" value="보험금청구심사API" style="text;html=1;strokeColor=none;fillColor=none;align=center;verticalAlign=middle;whiteSpace=wrap;rounded=0;" vertex="1" parent="WIyWlLk6GJQsqaUBKTNV-1">
          <mxGeometry x="458.75" y="-532" width="115" height="30" as="geometry" />
        </mxCell>
        <mxCell id="sz-k3UKfdQ9AmwkZd8R5-52" value="" style="rounded=1;whiteSpace=wrap;html=1;" vertex="1" parent="WIyWlLk6GJQsqaUBKTNV-1">
          <mxGeometry x="47.5" y="-570" width="145" height="30" as="geometry" />
        </mxCell>
        <mxCell id="sz-k3UKfdQ9AmwkZd8R5-53" value="" style="rounded=1;whiteSpace=wrap;html=1;" vertex="1" parent="WIyWlLk6GJQsqaUBKTNV-1">
          <mxGeometry x="47.5" y="-532" width="145" height="30" as="geometry" />
        </mxCell>
        <mxCell id="sz-k3UKfdQ9AmwkZd8R5-54" value="" style="rounded=1;whiteSpace=wrap;html=1;" vertex="1" parent="WIyWlLk6GJQsqaUBKTNV-1">
          <mxGeometry x="47.5" y="-492" width="145" height="30" as="geometry" />
        </mxCell>
        <mxCell id="sz-k3UKfdQ9AmwkZd8R5-55" value="검진데이터 기반 질병 예측" style="text;html=1;strokeColor=none;fillColor=none;align=center;verticalAlign=middle;whiteSpace=wrap;rounded=0;" vertex="1" parent="WIyWlLk6GJQsqaUBKTNV-1">
          <mxGeometry x="43.75" y="-570" width="152.5" height="30" as="geometry" />
        </mxCell>
        <mxCell id="sz-k3UKfdQ9AmwkZd8R5-56" value="바이오 지갑" style="text;html=1;strokeColor=none;fillColor=none;align=center;verticalAlign=middle;whiteSpace=wrap;rounded=0;" vertex="1" parent="WIyWlLk6GJQsqaUBKTNV-1">
          <mxGeometry x="43.75" y="-532" width="152.5" height="30" as="geometry" />
        </mxCell>
        <mxCell id="sz-k3UKfdQ9AmwkZd8R5-57" value="&lt;font style=&quot;font-size: 10px;&quot;&gt;보험 추천&lt;font style=&quot;font-size: 10px;&quot;&gt;(질병예측, 보험설계사)&lt;/font&gt;&lt;/font&gt;" style="text;html=1;strokeColor=none;fillColor=none;align=center;verticalAlign=middle;whiteSpace=wrap;rounded=0;" vertex="1" parent="WIyWlLk6GJQsqaUBKTNV-1">
          <mxGeometry x="43.75" y="-490" width="156.25" height="30" as="geometry" />
        </mxCell>
        <mxCell id="sz-k3UKfdQ9AmwkZd8R5-58" value="" style="rounded=1;whiteSpace=wrap;html=1;" vertex="1" parent="WIyWlLk6GJQsqaUBKTNV-1">
          <mxGeometry x="267.5" y="-250" width="145" height="30" as="geometry" />
        </mxCell>
        <mxCell id="sz-k3UKfdQ9AmwkZd8R5-59" value="" style="rounded=1;whiteSpace=wrap;html=1;" vertex="1" parent="WIyWlLk6GJQsqaUBKTNV-1">
          <mxGeometry x="267.5" y="-210" width="145" height="30" as="geometry" />
        </mxCell>
        <mxCell id="sz-k3UKfdQ9AmwkZd8R5-60" value="건강검진데이터API" style="text;html=1;strokeColor=none;fillColor=none;align=center;verticalAlign=middle;whiteSpace=wrap;rounded=0;" vertex="1" parent="WIyWlLk6GJQsqaUBKTNV-1">
          <mxGeometry x="285" y="-250" width="110" height="30" as="geometry" />
        </mxCell>
        <mxCell id="sz-k3UKfdQ9AmwkZd8R5-61" value="제증명API" style="text;html=1;strokeColor=none;fillColor=none;align=center;verticalAlign=middle;whiteSpace=wrap;rounded=0;" vertex="1" parent="WIyWlLk6GJQsqaUBKTNV-1">
          <mxGeometry x="300" y="-210" width="72.5" height="30" as="geometry" />
        </mxCell>
        <mxCell id="sz-k3UKfdQ9AmwkZd8R5-62" value="" style="rounded=1;whiteSpace=wrap;html=1;" vertex="1" parent="WIyWlLk6GJQsqaUBKTNV-1">
          <mxGeometry x="448" y="-250" width="145" height="30" as="geometry" />
        </mxCell>
        <mxCell id="sz-k3UKfdQ9AmwkZd8R5-63" value="건강검진데이터API" style="text;html=1;strokeColor=none;fillColor=none;align=center;verticalAlign=middle;whiteSpace=wrap;rounded=0;" vertex="1" parent="WIyWlLk6GJQsqaUBKTNV-1">
          <mxGeometry x="465" y="-250" width="110" height="30" as="geometry" />
        </mxCell>
      </root>
    </mxGraphModel>
  </diagram>
</mxfile>
